<svg xmlns="http://www.w3.org/2000/svg" viewBox="0 0 100 100" fill="none" stroke="#2dd4bf" stroke-width="4" stroke-linecap="round" stroke-linejoin="round">
  <title>Biblical Chronology App Icon</title>
  <path d="M20 10 C 10 10, 10 90, 20 90 L 80 90 C 90 90, 90 10, 80 10 L 20 10 Z" fill="#0f172a"/>
  <path d="M20 10 C 30 10, 30 20, 20 20 L 20 80 C 30 80, 30 90, 20 90"/>
  <path d="M80 10 C 70 10, 70 20, 80 20 L 80 80 C 70 80, 70 90, 80 90"/>
  <line x1="35" y1="30" x2="65" y2="30"/>
  <line x1="35" y1="45" x2="65" y2="45"/>
  <line x1="35" y1="60" x2="65" y2="60"/>
</svg>
